<svg width="15" height="15" viewBox="0 0 15 15" fill="none" xmlns="http://www.w3.org/2000/svg">
<path fill-rule="evenodd" clip-rule="evenodd" d="M2.78954 13.0851C2.73609 13.0348 2.68323 12.9835 2.63098 12.9313C-0.127278 10.1731 -0.127277 5.70103 2.63098 2.94279C5.38922 0.184525 14.1781 0 14.1781 0C14.1781 0 15.3778 10.1731 12.6195 12.9313C10.1698 15.381 6.36837 15.655 3.61625 13.7535L5.83381 11.0321L9.37879 10.2668L6.48505 9.97748L8.32406 8.10501L10.4174 7.64643L8.76211 7.15622L10.4174 4.1701L8.0629 6.81106L7.15368 5.52802L7.47375 7.64643L5.83381 9.49518L5.07363 7.15619V10.2668L2.78954 13.0851Z" fill="white"/>
</svg>
